<?xml version="1.0" standalone="no"?>
<!DOCTYPE svg >
    <svg version="1.0" xmlns="http://www.w3.org/2000/svg" width="1300pt" height="1600pt" viewBox="0 0 100 100" preserveAspectRatio="xMidYMid meet">
    <metadata>
        Coders Lodge logo
    </metadata>
    <defs>
          <linearGradient id="first" x1="79.4%" y1="18.25%" x2="10%" y2="19.3%">
            <stop offset="0%" stop-color="#a93134" stop-opacity="1"/>
            <stop offset="100%" stop-color="#ec3136" stop-opacity="1"/>
          </linearGradient>
          <linearGradient id="second" x1="50%" y1="15%" x2="30%" y2="35%">
            <stop offset="0%" stop-color="#109e30" stop-opacity="1"/>
            <stop offset="100%" stop-color="#3bac32" stop-opacity="1"/>
          </linearGradient>
          <linearGradient id="third" x1="23%" y1="39%" x2="42%" y2="70%">
            <stop offset="0%" stop-color="#e47c00" stop-opacity="1"/>
            <stop offset="100%" stop-color="#ed9900" stop-opacity="1"/>
          </linearGradient>
          <linearGradient id="fourth" x1="75%" y1="70%" x2="31%" y2="60%">
            <stop offset="0%" stop-color="#01379b" stop-opacity="1"/>
            <stop offset="100%" stop-color="#005db6" stop-opacity="1"/>
          </linearGradient>
        </defs>
        
        <path class='first' d="M79.4 18.25 L67.8 26 A60 29 -26 0, 0  60 22.1 A10 19.3 -40.4 0, 0 54.8 8.4 A32 25 44 0,1 79.4 18.25" stroke-width="0.1" fill="url(#first)" stroke="none" />
        <path class="second" d="M47.6 8.9 A50.8 27 0 0,1 54.3 21.5 A21.3 21 0 0 , 0 32.8 40.1 A24 43 0 0 , 1 20.9 32.2 A35 34 -20 0, 1 47.6 8.9" stroke-width="0.1" fill="url(#second)" stroke="none" />
        <path class="third" d="M19.4 39.2 A28 35 0 0, 0 33 45.7 A25 21.7 0 0, 0 43.5 60.9 A90 47 0 0, 0 44.1 75.25 A34.5 34.5 0 0 , 1 19.4 39.2" stroke-width="0.1" fill="url(#third)" stroke="none" />
        <path class="fourth" d="M79.2 66.6 L67.8 59 A29.5 42 -10 0, 1 48.79 63 A19 18 0 0, 0 51.2 76.7 A34 27.5 0 0, 0 79.2 66.6" stroke-width="0.1" fill="url(#fourth)" stroke="none" />
        <path d="M42.63 27.5 V36 L38.5 39.8 V46.8 L42.3 50.2 V55" stroke-width="1.3" fill="none" stroke="#312d2e" stroke-linecap="round" opacity="1"/>
        <circle cx="42.33" cy="55.5" r="1.8" stroke-width="1.3" fill="#2c648c" stroke="#312d2e" opacity="1"/>
        <path d="M47.85 57.4 V46.4 L43.4 42.3" stroke-width="1.3" fill="none" stroke="#312d2e" stroke-linecap="round" opacity="1"/>
        <circle cx="42.9" cy="42" r="1.8" stroke-width="1.3" fill="#6cbfda" stroke="#312d2e" opacity="1"/> 
        <path d="M48.77 27.5 V38.8 L52.3 42 H60" stroke-width="1.3" fill="none" stroke="#312d2e" stroke-linecap="round" opacity="1"/>
        <circle cx="59.9" cy="42" r="1.8" stroke-width="1.3" fill="#ffebee" stroke="#312d2e" opacity="1"/> 
        <path d="M54.378 27.5 V34.7 " stroke-width="1.3" fill="none" stroke="#312d2e" stroke-linecap="round" opacity="1"/>
        <circle cx="54.3" cy="34.7" r="1.8" stroke-width="1.3" fill="#2c648c" stroke="#312d2e" opacity="1"/> 
        <path d="M51.2 57.4 V52.5 L54.9 49 " stroke-width="1.3" fill="none" stroke="#312d2e" stroke-linecap="round" opacity="1"/>
        <circle cx="55.1" cy="49" r="1.8" stroke-width="1.3" fill="#6cbfda" stroke="#312d2e" opacity="1"/> 
        <path d="M60.89 27.5 V33.6 L65.1 37.12" stroke-width="1.3" fill="none" stroke="#312d2e" stroke-linecap="round" opacity="1"/>
        <circle cx="65.7" cy="37.7" r="1.8" stroke-width="1.3" fill="#6cbfda" stroke="#312d2e" opacity="1"/> 
        <path d="M63.2 57.4 V49" stroke-width="1.3" fill="none" stroke="#312d2e" stroke-linecap="round" opacity="1"/>
        <circle cx="63.2" cy="49" r="1.8" stroke-width="1.3" fill="#2c648c" stroke="#312d2e" opacity="1"/> 
        <path d="M68.7 57.4 V48.9 L72.8 45.2 V38 L69 34.7 V30" stroke-width="1.3" fill="none" stroke="#312d2e" stroke-linecap="round" opacity="1"/>
        <circle cx="69" cy="29.4" r="1.8" stroke-width="1.3" fill="#ffebee" stroke="#312d2e" opacity="1"/> 

        <text x="25" y="84.8" style="font-family: Arial, Helvetica, sans-serif; font-size: 8px;">
          <tspan dx="0" dy="0" fill="#aa3235">C</tspan>
          <tspan dx="-2.5" dy="-0.2" fill="#e37b01" style="font-size: 6.5px; letter-spacing: -0.4px">ODERS</tspan> 
          <tspan dx="0" dy="0.2" fill="#18a033">L</tspan>
          <tspan dx="-2.5" dy="0" fill="#013a9e" style="font-size: 6.5px; letter-spacing: -0.4px ">ODGE</tspan>
        </text>


</svg>
